<svg width="33" height="32" viewBox="0 0 33 32" fill="none" xmlns="http://www.w3.org/2000/svg">
<rect opacity="0.3" x="3.16669" y="2.66675" width="13.3333" height="16" rx="2" fill="#E7EAEB"/>
<path fill-rule="evenodd" clip-rule="evenodd" d="M5.16669 8C4.06212 8 3.16669 8.89543 3.16669 10V27.3333C3.16669 28.4379 4.06212 29.3333 5.16669 29.3333H27.8334C28.9379 29.3333 29.8334 28.4379 29.8334 27.3333V10C29.8334 8.89543 28.9379 8 27.8334 8H5.16669ZM27.1667 18.6667C27.1667 20.1394 25.9728 21.3333 24.5 21.3333C23.0273 21.3333 21.8334 20.1394 21.8334 18.6667C21.8334 17.1939 23.0273 16 24.5 16C25.9728 16 27.1667 17.1939 27.1667 18.6667Z" fill="#E7EAEB"/>
</svg>
