<svg width="78" height="90" viewBox="0 0 78 90" fill="none" xmlns="http://www.w3.org/2000/svg">
<path d="M64.8971 57.4323L47.1277 85.6126C43.2727 83.732 39.1782 81.137 35.0039 77.886L56.4344 43.918C59.7875 48.4519 62.6388 53.0296 64.8971 57.4323Z" fill="#F79422"/>
<path d="M56.423 43.9324L34.9925 77.9004C31.3999 75.1159 27.7502 71.8503 24.1575 68.1474L46.6601 32.4736C50.2641 36.162 53.5375 40.0253 56.423 43.9324Z" fill="#F79422"/>
<path d="M76.1542 73.5419L68.9917 84.8986C67.4292 87.3769 64.9771 88.7619 61.8976 89.1264L73.474 70.772L76.1542 73.5419Z" fill="#F79422"/>
<path d="M68.467 65.6253L73.4739 70.7861L61.8975 89.1405C57.8715 89.6216 52.7619 88.3824 47.1277 85.6125L64.8971 57.4321C66.3342 60.2458 67.5431 63.0011 68.467 65.6253Z" fill="#F79422"/>
<path d="M23.7125 14.9798L5.94307 43.1602C2.63555 36.7019 0.605416 30.5935 0.11499 25.4618L11.6913 7.10742L16.6982 12.2682C18.8994 12.866 21.2603 13.7844 23.7125 14.9798Z" fill="#F79422"/>
<path d="M1.84897 15.6931L9.01146 4.33643L11.6917 7.10635L0.115362 25.4608C-0.261012 21.5245 0.275044 18.1715 1.84897 15.6931Z" fill="#F79422"/>
<path d="M24.169 68.1323C20.5763 64.4293 17.303 60.566 14.4061 56.6589L35.8365 22.6909C39.4292 25.4754 43.0789 28.741 46.6715 32.444L24.169 68.1323Z" fill="#F79422"/>
<path d="M35.8373 22.7061L14.4068 56.6742C11.0423 52.1548 8.19098 47.5771 5.93274 43.1598L23.7135 14.9795C27.5571 16.8747 31.663 19.4697 35.8373 22.7061Z" fill="#F79422"/>
<path d="M9.01128 4.33714C2.79542 14.1922 12.7864 37.6637 31.3314 56.7762C49.8763 75.8887 69.9381 83.3966 76.154 73.5415C82.3699 63.6864 72.3789 40.215 53.8339 21.1025C35.289 1.98999 15.2271 -5.51796 9.01128 4.33714Z" fill="url(#paint0_linear_1343_7518)"/>
<path d="M12.0339 7.0483C6.50236 15.8246 15.7634 37.1093 32.7116 54.589C49.6599 72.0686 67.9082 79.1247 73.4398 70.3484C78.9713 61.5721 69.7103 40.2874 52.7621 22.8077C35.8139 5.32804 17.5655 -1.72798 12.0339 7.0483Z" fill="url(#paint1_linear_1343_7518)"/>
<path d="M12.1596 9.55662C6.99304 17.7498 16.083 38.0723 32.4724 54.9688C48.8617 71.8508 66.3346 78.9068 71.5011 70.7137C76.6677 62.5205 67.5777 42.198 51.1884 25.3015C34.7991 8.41949 17.3262 1.37805 12.1596 9.55662Z" fill="url(#paint2_linear_1343_7518)"/>
<path fill-rule="evenodd" clip-rule="evenodd" d="M41.7367 31.065C40.3088 30.3513 39.1848 29.9773 38.4699 29.7793L38.4602 29.7769L37.8297 28.7626C37.5161 28.5688 37.1049 28.3325 36.6308 28.1095C35.9954 27.8102 35.4933 27.6525 35.1572 27.5652L35.5136 28.1705C35.2707 28.2037 35.0942 28.2675 34.9672 28.3314L35.5197 29.3263L35.5087 29.3217C34.8213 29.1704 33.8271 29.0168 32.8934 29.1423C31.7492 29.295 31.2206 29.7981 30.9718 30.1412C30.4329 29.9527 27.3607 28.8493 24.1543 26.1101C20.5052 22.993 19.709 20.346 19.6174 20.0176C19.5475 19.8952 19.2392 19.3681 18.6902 19.018C18.1568 18.6789 17.713 18.7071 17.5025 18.7205L17.4972 18.7208C16.5165 18.7876 15.6907 20.215 16.735 22.8424C18.1452 26.3911 22.0619 29.8497 22.522 30.2501C25.1744 32.5601 27.7017 33.9871 28.8905 34.6124L29.3789 35.3254L29.1456 35.5042L30.205 37.3035L31.3269 38.055C31.2712 38.6379 31.2993 39.5889 31.8108 40.9515C32.1878 41.9587 32.9848 44.0815 35.5076 46.5383C36.0622 47.0779 37.3452 48.2619 39.9194 49.8815C45.4585 53.3681 50.4032 54.7372 52.7991 55.2743L52.6075 54.9488C55.1931 55.5347 58.7647 56.0184 60.9165 54.8316C62.1405 54.158 62.2305 53.316 62.2311 52.9147C62.2306 51.0862 60.3721 48.699 59.4887 47.5657C58.2955 46.0333 57.0208 44.7717 56.1416 43.9559L56.612 43.6011L55.5525 41.8018L54.9922 41.4253L54.6645 40.7523C55.3991 40.6061 56.8257 40.1639 57.202 38.6083C57.2678 38.339 57.7578 35.978 54.7554 32.0327C52.5327 29.1118 49.4532 26.7116 48.0431 26.0494L48.0356 26.0458C47.7343 25.905 47.099 25.6079 46.8502 25.7522C46.5957 25.9022 46.9089 26.4305 46.9837 26.5541C47.3139 26.9419 49.897 30.0341 49.2953 32.0923C48.7669 33.9012 46.1614 33.5904 45.6973 33.5291C44.8894 32.9228 43.4849 31.9381 41.7367 31.065Z" fill="url(#paint3_linear_1343_7518)"/>
<defs>
<linearGradient id="paint0_linear_1343_7518" x1="7.5" y1="-7.48024" x2="60.093" y2="58.3429" gradientUnits="userSpaceOnUse">
<stop offset="1e-08" stop-color="#F79422"/>
<stop offset="1" stop-color="#FFBB6B"/>
</linearGradient>
<linearGradient id="paint1_linear_1343_7518" x1="75.8416" y1="72.8253" x2="15.6491" y2="23.5958" gradientUnits="userSpaceOnUse">
<stop stop-color="#E4800C"/>
<stop offset="1" stop-color="#CC822D"/>
</linearGradient>
<linearGradient id="paint2_linear_1343_7518" x1="6.375" y1="-0.439804" x2="72.7923" y2="63.3338" gradientUnits="userSpaceOnUse">
<stop stop-color="#FFC37D"/>
<stop offset="1" stop-color="#E37F0B"/>
</linearGradient>
<linearGradient id="paint3_linear_1343_7518" x1="42.1429" y1="24.4902" x2="32.2715" y2="60.1888" gradientUnits="userSpaceOnUse">
<stop stop-color="#FFE2C0"/>
<stop offset="1" stop-color="#FFC52D" stop-opacity="0"/>
</linearGradient>
</defs>
</svg>
