<svg width="20" height="19" viewBox="0 0 20 19" fill="none" xmlns="http://www.w3.org/2000/svg">
<path d="M11.4249 1.90114L13.0287 5.00507C13.2292 5.5057 13.7304 5.80608 14.2316 5.90621L17.6398 6.40684C18.9429 6.6071 19.4441 8.20913 18.5419 9.11027L16.0359 11.4132C15.635 11.8137 15.4345 12.3143 15.5347 12.815L16.1362 16.1191C16.3366 17.4208 15.0335 18.4221 13.8306 17.8213L10.7232 16.2193C10.222 16.019 9.7208 16.019 9.2196 16.2193L6.11215 17.8213C4.90927 18.4221 3.60615 17.4208 3.80663 16.1191L4.40807 12.815C4.50831 12.3143 4.30783 11.7136 3.90687 11.4132L1.50111 9.01014C0.498712 8.109 1.10015 6.50697 2.40327 6.30672L5.81143 5.80608C6.31263 5.70596 6.81383 5.40558 7.01432 5.00507L8.51792 1.90114C9.2196 0.69962 10.8234 0.69962 11.4249 1.90114Z" stroke="#22252D" stroke-width="1.5" stroke-linecap="round" stroke-linejoin="round"/>
</svg>
