<svg width="25" height="24" viewBox="0 0 25 24" fill="none" xmlns="http://www.w3.org/2000/svg">
<g clip-path="url(#clip0_2724_14776)">
<path fill-rule="evenodd" clip-rule="evenodd" d="M12.4528 0C5.57513 0 0 5.3808 0 12.0204C0 17.3304 3.56774 21.8364 8.51649 23.4252C9.13913 23.5356 9.36577 23.1648 9.36577 22.8456C9.36577 22.5612 9.35581 21.804 9.34959 20.802C5.88521 21.528 5.15423 19.1904 5.15423 19.1904C4.58887 17.8008 3.77196 17.4312 3.77196 17.4312C2.64125 16.6872 3.85789 16.7016 3.85789 16.7016C5.10691 16.7856 5.76442 17.94 5.76442 17.94C6.87521 19.776 8.67962 19.2456 9.38819 18.9384C9.50275 18.162 9.82404 17.6328 10.1802 17.3328C7.41566 17.0292 4.50792 15.9972 4.50792 11.3916C4.50792 10.08 4.99359 9.006 5.78932 8.166C5.66106 7.8624 5.23392 6.6396 5.91136 4.986C5.91136 4.986 6.9574 4.662 9.33589 6.2172C10.3517 5.95022 11.3999 5.81423 12.4528 5.8128C13.5113 5.8176 14.576 5.9508 15.571 6.2172C17.9483 4.662 18.9918 4.9848 18.9918 4.9848C19.6717 6.6396 19.2434 7.8624 19.1163 8.166C19.9133 9.006 20.3965 10.08 20.3965 11.3916C20.3965 16.0092 17.4838 17.0256 14.7105 17.3232C15.1576 17.694 15.5548 18.4272 15.5548 19.5492C15.5548 21.1548 15.5399 22.452 15.5399 22.8456C15.5399 23.1672 15.764 23.5416 16.3966 23.424C18.8764 22.6225 21.032 21.0904 22.5589 19.0441C24.0858 16.9977 24.9067 14.5408 24.9057 12.0204C24.9057 5.3808 19.3293 0 12.4528 0Z" fill="#818898"/>
</g>
<defs>
<clipPath id="clip0_2724_14776">
<rect width="24.9057" height="24" fill="white"/>
</clipPath>
</defs>
</svg>
