<svg width="25" height="24" viewBox="0 0 25 24" fill="none" xmlns="http://www.w3.org/2000/svg">
<g id="Group">
<path id="Vector" d="M12.4585 2.16094C15.6647 2.16094 16.0444 2.175 17.3054 2.23125C18.4772 2.28281 19.1101 2.47969 19.5319 2.64375C20.0898 2.85938 20.4929 3.12187 20.9101 3.53906C21.3319 3.96094 21.5898 4.35938 21.8054 4.91719C21.9694 5.33906 22.1663 5.97656 22.2179 7.14375C22.2741 8.40937 22.2882 8.78906 22.2882 11.9906C22.2882 15.1969 22.2741 15.5766 22.2179 16.8375C22.1663 18.0094 21.9694 18.6422 21.8054 19.0641C21.5898 19.6219 21.3272 20.025 20.9101 20.4422C20.4882 20.8641 20.0898 21.1219 19.5319 21.3375C19.1101 21.5016 18.4726 21.6984 17.3054 21.75C16.0397 21.8062 15.6601 21.8203 12.4585 21.8203C9.25225 21.8203 8.87256 21.8062 7.61162 21.75C6.43975 21.6984 5.80693 21.5016 5.38506 21.3375C4.82725 21.1219 4.42412 20.8594 4.00693 20.4422C3.58506 20.0203 3.32725 19.6219 3.11162 19.0641C2.94756 18.6422 2.75068 18.0047 2.69912 16.8375C2.64287 15.5719 2.62881 15.1922 2.62881 11.9906C2.62881 8.78437 2.64287 8.40469 2.69912 7.14375C2.75068 5.97187 2.94756 5.33906 3.11162 4.91719C3.32725 4.35938 3.58975 3.95625 4.00693 3.53906C4.42881 3.11719 4.82725 2.85938 5.38506 2.64375C5.80693 2.47969 6.44444 2.28281 7.61162 2.23125C8.87256 2.175 9.25225 2.16094 12.4585 2.16094ZM12.4585 0C9.20069 0 8.79287 0.0140625 7.51319 0.0703125C6.23818 0.126562 5.36162 0.332812 4.60225 0.628125C3.81006 0.9375 3.13975 1.34531 2.47412 2.01562C1.80381 2.68125 1.396 3.35156 1.08662 4.13906C0.791309 4.90313 0.585059 5.775 0.528809 7.05C0.472559 8.33437 0.458496 8.74219 0.458496 12C0.458496 15.2578 0.472559 15.6656 0.528809 16.9453C0.585059 18.2203 0.791309 19.0969 1.08662 19.8562C1.396 20.6484 1.80381 21.3187 2.47412 21.9844C3.13975 22.65 3.81006 23.0625 4.59756 23.3672C5.36162 23.6625 6.2335 23.8687 7.5085 23.925C8.78819 23.9812 9.196 23.9953 12.4538 23.9953C15.7116 23.9953 16.1194 23.9812 17.3991 23.925C18.6741 23.8687 19.5507 23.6625 20.3101 23.3672C21.0976 23.0625 21.7679 22.65 22.4335 21.9844C23.0991 21.3187 23.5116 20.6484 23.8163 19.8609C24.1116 19.0969 24.3179 18.225 24.3741 16.95C24.4304 15.6703 24.4444 15.2625 24.4444 12.0047C24.4444 8.74687 24.4304 8.33906 24.3741 7.05937C24.3179 5.78437 24.1116 4.90781 23.8163 4.14844C23.521 3.35156 23.1132 2.68125 22.4429 2.01562C21.7773 1.35 21.1069 0.9375 20.3194 0.632812C19.5554 0.3375 18.6835 0.13125 17.4085 0.075C16.1241 0.0140625 15.7163 0 12.4585 0Z" fill="#818898"/>
<path id="Vector_2" d="M12.4585 5.83594C9.05537 5.83594 6.29443 8.59688 6.29443 12C6.29443 15.4031 9.05537 18.1641 12.4585 18.1641C15.8616 18.1641 18.6226 15.4031 18.6226 12C18.6226 8.59688 15.8616 5.83594 12.4585 5.83594ZM12.4585 15.9984C10.2507 15.9984 8.46006 14.2078 8.46006 12C8.46006 9.79219 10.2507 8.00156 12.4585 8.00156C14.6663 8.00156 16.4569 9.79219 16.4569 12C16.4569 14.2078 14.6663 15.9984 12.4585 15.9984Z" fill="#818898"/>
<path id="Vector_3" d="M20.3054 5.59214C20.3054 6.38902 19.6585 7.03121 18.8663 7.03121C18.0694 7.03121 17.4272 6.38433 17.4272 5.59214C17.4272 4.79526 18.0741 4.15308 18.8663 4.15308C19.6585 4.15308 20.3054 4.79995 20.3054 5.59214Z" fill="#818898"/>
</g>
</svg>
