<svg width="48" height="48" viewBox="0 0 48 48" fill="none" xmlns="http://www.w3.org/2000/svg">
<g id="telegram" clip-path="url(#clip0_2724_14757)">
<path id="Vector" d="M24 48C37.2548 48 48 37.2548 48 24C48 10.7452 37.2548 0 24 0C10.7452 0 0 10.7452 0 24C0 37.2548 10.7452 48 24 48Z" fill="url(#paint0_linear_2724_14757)"/>
<path id="Vector_2" d="M16.2456 25.7544L19.093 33.6356C19.093 33.6356 19.449 34.373 19.8302 34.373C20.2114 34.373 25.8812 28.4746 25.8812 28.4746L32.1862 16.2966L16.3472 23.72L16.2456 25.7544Z" fill="#C8DAEA"/>
<path id="Vector_3" d="M20.021 27.7756L19.4744 33.5848C19.4744 33.5848 19.2456 35.3648 21.0252 33.5848C22.8048 31.8048 24.5082 30.4322 24.5082 30.4322" fill="#A9C6D8"/>
<path id="Vector_4" d="M16.2974 26.0356L10.4402 24.1272C10.4402 24.1272 9.74022 23.8432 9.96562 23.1992C10.012 23.0664 10.1056 22.9534 10.3856 22.7592C11.6834 21.8546 34.4068 13.6872 34.4068 13.6872C34.4068 13.6872 35.0484 13.471 35.4268 13.6148C35.5204 13.6438 35.6047 13.6971 35.6709 13.7693C35.7371 13.8415 35.783 13.93 35.8038 14.0258C35.8447 14.1949 35.8618 14.3689 35.8546 14.5428C35.8528 14.6932 35.8346 14.8326 35.8208 15.0512C35.6824 17.2842 31.5408 33.9498 31.5408 33.9498C31.5408 33.9498 31.293 34.925 30.4052 34.9584C30.187 34.9654 29.9697 34.9285 29.7661 34.8497C29.5625 34.771 29.3769 34.652 29.2202 34.5C27.478 33.0014 21.4564 28.9546 20.1258 28.0646C20.0958 28.0441 20.0705 28.0175 20.0517 27.9864C20.0329 27.9554 20.0209 27.9206 20.0166 27.8846C19.998 27.7908 20.1 27.6746 20.1 27.6746C20.1 27.6746 30.5852 18.3546 30.8642 17.3762C30.8858 17.3004 30.8042 17.263 30.6946 17.2962C29.9982 17.5524 17.9258 25.1762 16.5934 26.0176C16.4975 26.0466 16.3961 26.0528 16.2974 26.0356Z" fill="white"/>
</g>
<defs>
<linearGradient id="paint0_linear_2724_14757" x1="24" y1="48" x2="24" y2="0" gradientUnits="userSpaceOnUse">
<stop stop-color="#1D93D2"/>
<stop offset="1" stop-color="#38B0E3"/>
</linearGradient>
<clipPath id="clip0_2724_14757">
<rect width="48" height="48" fill="white"/>
</clipPath>
</defs>
</svg>
