<svg width="25" height="24" viewBox="0 0 25 24" fill="none" xmlns="http://www.w3.org/2000/svg">
<g clip-path="url(#clip0_2724_14780)">
<path d="M23.9894 6.18541C23.8563 5.67482 23.5939 5.20883 23.2286 4.83407C22.8632 4.4593 22.4077 4.18891 21.9076 4.04996C20.0666 3.54541 12.7082 3.54541 12.7082 3.54541C12.7082 3.54541 5.34967 3.54541 3.5087 4.04996C3.00862 4.18891 2.5531 4.4593 2.18776 4.83407C1.82241 5.20883 1.56005 5.67482 1.42692 6.18541C0.93457 8.06996 0.93457 12 0.93457 12C0.93457 12 0.93457 15.93 1.42692 17.8145C1.56005 18.3251 1.82241 18.7911 2.18776 19.1658C2.5531 19.5406 3.00862 19.811 3.5087 19.95C5.34967 20.4545 12.7082 20.4545 12.7082 20.4545C12.7082 20.4545 20.0666 20.4545 21.9076 19.95C22.4077 19.811 22.8632 19.5406 23.2286 19.1658C23.5939 18.7911 23.8563 18.3251 23.9894 17.8145C24.4817 15.93 24.4817 12 24.4817 12C24.4817 12 24.4817 8.06996 23.9894 6.18541Z" fill="#818898"/>
<path d="M10.2998 15.5687V8.4314L16.4542 12L10.2998 15.5687Z" fill="#FEFEFE"/>
</g>
<defs>
<clipPath id="clip0_2724_14780">
<rect width="23.5472" height="24" fill="white" transform="translate(0.911133)"/>
</clipPath>
</defs>
</svg>
